PathFileType	4	(X/Y/Z)	OpenSim_Sub02_EMGStiffKnee_Magnet.trc
DataRate	CameraRate	NumFrames	NumMarkers	Units	OrigDataRate	OrigDataStartFrame	OrigNumFrames
100	100	13	8	m	100	6904	7890
Frame#	Time	torso_imu_offset_imu	pelvis_imu_offset_imu	tibia_r_imu_offset_imu	femur_r_imu_offset_imu	tibia_l_imu_offset_imu	femur_l_imu_offset_imu	toes_r_imu_offset_imu	toes_l_imu_offset_imu
				X1	Y1	Z1	X2	Y2	Z2	X3	Y3	Z3	X4	Y4	Z4	X5	Y5	Z5	X6	Y6	Z6	X7	Y7	Z7	X8		Y8	Z8	

6904	69.03000000	-0.93569974	-0.14463690	0.04402880	-0.56314372	0.15455306	-0.71086662	-0.61969483	-0.46669619	-0.19674578	-0.83583276	-0.09675310	0.11354138	-0.27463095	0.78194310	-0.12679739	-0.52877200	0.62491711	0.19764581	-0.64182333	-0.28371964	-0.40144404	-0.86234530	-0.04268826	-0.10045701
6905	69.04000000	-0.93642870	-0.14259316	0.04428593	-0.56347107	0.14354205	-0.71892392	-0.61303756	-0.48142813	-0.19699959	-0.83216153	-0.10759859	0.12089078	-0.25402693	0.78975349	-0.13072932	-0.53259195	0.61752943	0.19609711	-0.64381829	-0.28374641	-0.39603756	-0.87046266	-0.03756157	-0.05277917
6906	69.05000000	-0.93741500	-0.14231832	0.04838801	-0.55695609	0.14228156	-0.71603790	-0.60210820	-0.49293577	-0.19089694	-0.82668031	-0.12336951	0.12679075	-0.23629263	0.79868888	-0.14012049	-0.54379774	0.61688247	0.19160967	-0.64383765	-0.28048053	-0.38541126	-0.86353776	-0.03330753	-0.00156329
6907	69.06000000	-0.93581722	-0.14382684	0.04947755	-0.55762199	0.14209150	-0.72128093	-0.60126956	-0.50195175	-0.18181887	-0.82258763	-0.14498396	0.12866741	-0.21573092	0.79752863	-0.14702871	-0.55153110	0.61248264	0.18713199	-0.64354043	-0.28048970	-0.38645900	-0.86140345	-0.02581971	0.04683023
6908	69.07000000	-0.93876086	-0.14483436	0.04462052	-0.55757929	0.13721842	-0.72619204	-0.59623494	-0.51219506	-0.17115541	-0.81708641	-0.17086472	0.13565432	-0.20156219	0.79845247	-0.15316752	-0.55781297	0.60483692	0.18760965	-0.64328434	-0.27858063	-0.38401034	-0.85648742	-0.02109807	0.08282115
6909	69.08000000	-0.93637328	-0.14495523	0.04437886	-0.55154946	0.12875656	-0.73080809	-0.59355950	-0.51815719	-0.16033108	-0.81278498	-0.19706111	0.14203587	-0.18746853	0.80602602	-0.16177210	-0.56788611	0.59719204	0.18286478	-0.64104745	-0.27841731	-0.38126528	-0.84877858	-0.00937812	0.11256213
6910	69.09000000	-0.93684418	-0.13922641	0.04788369	-0.54463949	0.12484635	-0.73595608	-0.58769607	-0.52037188	-0.14796749	-0.80738457	-0.21201623	0.13320686	-0.16779240	0.80644608	-0.15933822	-0.57385839	0.59293010	0.17744312	-0.64263838	-0.27712436	-0.37761620	-0.84661048	0.00696814	0.12992073
6911	69.10000000	-0.93763689	-0.13196889	0.05116978	-0.54459925	0.12169615	-0.73041167	-0.58989891	-0.52873703	-0.14551224	-0.80421972	-0.21775628	0.13622100	-0.15379722	0.80852101	-0.16088093	-0.58501834	0.58612256	0.16439700	-0.63912472	-0.27970585	-0.38079686	-0.84416046	0.01981168	0.13364362
6912	69.11000000	-0.94099759	-0.12432782	0.05278517	-0.54617681	0.11946279	-0.73901419	-0.58624651	-0.53021578	-0.15356511	-0.80285081	-0.21713038	0.14532976	-0.14110944	0.81630526	-0.16722639	-0.59586454	0.58209814	0.14857831	-0.64049381	-0.27773872	-0.38043934	-0.84586881	0.04030920	0.12714992
6913	69.12000000	-0.93988903	-0.12315796	0.05447270	-0.54731064	0.11725281	-0.74016409	-0.58560957	-0.53140712	-0.16512685	-0.80786061	-0.22196558	0.14441794	-0.13149228	0.81051502	-0.17171605	-0.60206095	0.57292673	0.14676930	-0.64721001	-0.27716291	-0.37192142	-0.84931295	0.06424877	0.11637225
6914	69.13000000	-0.93793947	-0.12495017	0.05928351	-0.55064661	0.11149526	-0.73228647	-0.57369995	-0.53677767	-0.17611097	-0.80042779	-0.22553815	0.15291092	-0.12635696	0.80606374	-0.18982192	-0.61161583	0.56802137	0.13973215	-0.64908893	-0.27117216	-0.37002145	-0.84137278	0.08319899	0.10304641
6915	69.14000000	-0.94431734	-0.12510279	0.06292417	-0.55114872	0.11062756	-0.73560536	-0.56947546	-0.54297011	-0.18630046	-0.79993492	-0.22688097	0.15971968	-0.12680844	0.80617233	-0.21519907	-0.61832113	0.56225628	0.13164060	-0.64536460	-0.27314834	-0.36564946	-0.83841969	0.10714180	0.07293926
6916	69.15000000	-0.94394477	-0.12290900	0.05990158	-0.55584976	0.10611871	-0.73734368	-0.57034132	-0.54365402	-0.18869838	-0.80566319	-0.22970577	0.16538623	-0.13289835	0.79314725	-0.24835524	-0.62280330	0.55819583	0.12392037	-0.64735079	-0.27750710	-0.36144346	-0.83832817	0.12180667	0.04951858
